Coordinates
version=1
nRows=17
nColumns=40
inDegrees=yes

Units are S.I. units (second, meters, Newtons, ...)
Angles are in degrees.

endheader
time	pelvis_tilt	pelvis_list	pelvis_rotation	pelvis_tx	pelvis_ty	pelvis_tz	hip_flexion_r	hip_adduction_r	hip_rotation_r	knee_angle_r	knee_angle_r_beta	ankle_angle_r	subtalar_angle_r	mtp_angle_r	hip_flexion_l	hip_adduction_l	hip_rotation_l	knee_angle_l	knee_angle_l_beta	ankle_angle_l	subtalar_angle_l	mtp_angle_l	lumbar_extension	lumbar_bending	lumbar_rotation	arm_flex_r	arm_add_r	arm_rot_r	elbow_flex_r	pro_sup_r	wrist_flex_r	wrist_dev_r	arm_flex_l	arm_add_l	arm_rot_l	elbow_flex_l	pro_sup_l	wrist_flex_l	wrist_dev_l
     29.65500000	     -1.63830480	     -4.40670615	     -1.19033217	      1.01944107	      0.93727164	      0.40325316	     29.31674665	     -4.72779768	     -6.34991198	     39.84034612	     39.84034612	      2.83838176	     -9.31103429	     -0.94545749	     11.73274940	     -4.81950845	     -7.72188239	     19.67133000	     19.67133000	     12.14934111	     -8.03305342	     -6.04571425	    -11.80330166	      2.58212380	      0.72382647	     -2.50885477	    -15.04305655	     -8.61312983	     21.72548722	     47.51664200	      0.00000000	      0.00000000	     12.07988932	    -15.99663059	      1.31195197	     47.72588504	     45.94577246	      0.00000000	      0.00000000
     29.66750000	     -1.77624529	     -4.30896181	     -1.42613698	      1.01884721	      0.93712716	      0.40345609	     29.24095939	     -4.70261962	     -6.69911902	     36.68357963	     36.68357963	      2.37782442	     -8.33353191	     -0.35908493	     11.35339990	     -4.70214693	     -7.89441457	     19.33588657	     19.33588657	     12.32786128	     -8.02409496	     -6.05639463	    -11.75448406	      2.46038643	      0.59655644	     -3.36405223	    -15.40700996	     -8.96800837	     21.32794410	     47.55635442	      0.00000000	      0.00000000	     12.67549616	    -16.14643706	      1.21295016	     48.08891882	     45.97202093	      0.00000000	      0.00000000
     29.68000000	     -1.88814927	     -4.19560923	     -1.65211063	      1.01839793	      0.93693141	      0.40374845	     29.05765024	     -4.67492142	     -7.08266319	     33.59438430	     33.59438430	      1.96776111	     -7.10370481	      0.16823900	     10.95578554	     -4.58224702	     -8.10692493	     19.03747627	     19.03747627	     12.51767464	     -7.96555496	     -6.15141814	    -11.73501753	      2.33105725	      0.56558517	     -4.20849041	    -15.72141629	     -9.33570255	     21.01764086	     47.59374289	      0.00000000	      0.00000000	     13.22426762	    -16.31932002	      1.12521304	     48.68464410	     45.99843120	      0.00000000	      0.00000000
     29.69250000	     -1.90673044	     -4.00151623	     -1.88109211	      1.01815555	      0.93673091	      0.40414268	     28.75012943	     -4.75307747	     -7.56313109	     30.70485316	     30.70485316	      1.49117277	     -5.52945246	      0.15980716	     10.38987656	     -4.37086078	     -8.36702737	     18.61066357	     18.61066357	     12.42255277	     -7.99485751	     -6.89697967	    -11.90922267	      2.08147011	      0.75608443	     -5.27986641	    -15.58001570	    -14.61230765	     21.59441026	     47.97077694	      0.00000000	      0.00000000	     13.40028273	    -16.73782395	      1.65820203	     50.76365252	     46.08846918	      0.00000000	      0.00000000
     29.70500000	     -1.98247603	     -3.87542285	     -2.08203236	      1.01804028	      0.93643368	      0.40461063	     28.47535721	     -4.70524193	     -7.93980517	     28.06948718	     28.06948718	      1.18737009	     -4.00806526	      0.71855646	      9.96899658	     -4.24759531	     -8.56350427	     18.37850350	     18.37850350	     12.65367093	     -7.92724199	     -6.98039799	    -11.87997306	      1.93371233	      0.72691053	     -5.97624544	    -15.87617879	    -14.87184993	     21.27968427	     47.99382697	      0.00000000	      0.00000000	     13.92736443	    -16.86940173	      1.56105494	     51.15456240	     46.11518458	      0.00000000	      0.00000000
     29.71750000	     -2.08825844	     -3.71632996	     -2.29029625	      1.01812368	      0.93605662	      0.40518983	     28.22578070	     -4.67074914	     -8.24045796	     25.75142344	     25.75142344	      0.97295521	     -2.50213306	      1.25167000	      9.54282753	     -4.08924610	     -8.78074648	     18.09239626	     18.09239626	     12.85889852	     -7.83710951	     -7.08315306	    -11.77178760	      1.74703171	      0.69623448	     -6.64306855	    -16.06497510	    -15.10424301	     21.16140031	     48.00685661	      0.00000000	      0.00000000	     14.33901235	    -17.02063071	      1.47198163	     51.67431209	     46.13937059	      0.00000000	      0.00000000
     29.73000000	     -2.00824929	     -3.48625683	     -2.48203979	      1.01850985	      0.93589690	      0.40577654	     27.83988108	     -4.80112274	     -8.71675897	     23.95587701	     23.95587701	      0.97186128	     -0.56595756	      1.87787830	      8.84009859	     -3.84098526	     -9.05018130	     17.69592234	     17.69592234	     13.01385951	     -7.67517143	     -7.27132007	    -11.87708719	      1.47287747	      0.77608154	     -7.45313292	    -16.26872636	    -15.62301632	     21.43696276	     48.01626111	      0.00000000	      0.00000000	     14.67460160	    -17.17853260	      1.37931980	     52.61812143	     46.17576959	      0.00000000	      0.00000000
     29.74250000	     -2.06009471	     -3.33564364	     -2.63292110	      1.01905360	      0.93556067	      0.40648412	     27.56208255	     -4.76748007	     -8.88744104	     22.47512511	     22.47512511	      0.86856669	      0.56952846	      2.42084847	      8.30960464	     -3.68024955	     -9.22038093	     17.36570385	     17.36570385	     13.18738953	     -7.57798150	     -7.38925223	    -11.75053597	      1.33324233	      0.70768840	     -8.06331207	    -16.42065324	    -15.91272088	     21.63416673	     48.01670788	      0.00000000	      0.00000000	     14.91190551	    -17.32710939	      1.30621315	     53.18298598	     46.19779437	      0.00000000	      0.00000000
     29.75500000	     -2.01651373	     -3.11196606	     -2.79754580	      1.01982204	      0.93530240	      0.40724241	     27.28910245	     -4.89846135	     -9.20994331	     21.62339811	     21.62339811	      1.30059964	      2.01769829	      3.83579444	      7.57788265	     -3.41622050	     -9.36710860	     16.84943154	     16.84943154	     13.12718176	     -7.60535267	     -7.87859781	    -11.78722704	      1.09710027	      0.75395411	     -9.18661119	    -16.41540405	    -17.36382615	     23.37366596	     47.98266469	      0.00000000	      0.00000000	     14.86582711	    -17.54572932	      1.24780698	     54.65861450	     46.26712931	      0.00000000	      0.00000000
     29.76750000	     -1.98720840	     -2.93581937	     -2.92778650	      1.02085358	      0.93507119	      0.40816060	     26.90191099	     -4.89230890	     -9.23426218	     20.89138007	     20.89138007	      1.27324430	      2.56442700	      4.09755135	      6.86777166	     -3.22798268	     -9.56607633	     16.39833909	     16.39833909	     13.29119900	     -7.39147345	     -7.90992188	    -11.66151018	      0.91573516	      0.74868426	     -9.58093449	    -16.47873519	    -17.52415234	     23.38449217	     47.98045411	      0.00000000	      0.00000000	     15.12386081	    -17.61375821	      1.18350104	     54.90083768	     46.28501380	      0.00000000	      0.00000000
     29.78000000	     -2.06239719	     -2.82670279	     -3.00418313	      1.02194145	      0.93439252	      0.40914171	     26.79954897	     -4.86238428	     -9.23680710	     20.84049415	     20.84049415	      1.24240815	      2.60441689	      4.13352134	      6.50374533	     -3.15309560	     -9.63061751	     16.39903184	     16.39903184	     13.53477498	     -7.44907270	     -7.99321366	    -11.37292945	      0.87005709	      0.60303664	     -9.71439944	    -16.50996858	    -17.54605434	     23.36246462	     47.98135568	      0.00000000	      0.00000000	     15.25948000	    -17.64467325	      1.16664119	     54.96987474	     46.28888413	      0.00000000	      0.00000000
     29.79250000	     -1.78158383	     -2.53684161	     -3.11986193	      1.02365831	      0.93464809	      0.41017771	     25.93288599	     -5.01257507	     -9.29339989	     20.43230290	     20.43230290	      1.35454533	      3.12719741	      4.31275043	      5.15310999	     -2.78792832	     -9.99642189	     15.31266235	     15.31266235	     13.61399405	     -6.71216083	     -7.93847275	    -11.51084283	      0.53424180	      0.71257049	    -10.27126063	    -16.51757695	    -17.79866954	     23.72678602	     47.96579605	      0.00000000	      0.00000000	     15.39353311	    -17.71775068	      1.01457331	     55.52292474	     46.31796891	      0.00000000	      0.00000000
     29.80500000	     -1.86665248	     -2.41918030	     -3.12878438	      1.02520306	      0.93393441	      0.41134325	     25.58040586	     -4.99701092	     -9.36596531	     20.50137331	     20.50137331	      1.42666421	      3.06030018	      4.30824133	      4.76013069	     -2.71408130	    -10.03164225	     15.27533861	     15.27533861	     13.86850468	     -6.71630506	     -8.02777218	    -11.14570395	      0.44394985	      0.61056101	    -10.40000572	    -16.51571684	    -17.83241852	     23.75674161	     47.96441804	      0.00000000	      0.00000000	     15.46021967	    -17.73965013	      0.99271500	     55.59938412	     46.32213296	      0.00000000	      0.00000000
     29.81750000	     -1.55824477	     -2.13832874	     -3.16183942	      1.02729477	      0.93390261	      0.41255583	     24.73171066	     -5.14567397	     -9.23638531	     20.65712771	     20.65712771	      1.68950227	      2.91103623	      4.27123067	      3.42775118	     -2.39203144	    -10.39305399	     14.31979911	     14.31979911	     13.99765875	     -5.81979923	     -7.99239530	    -11.24808481	      0.16846737	      0.59089464	    -10.79147440	    -16.39719940	    -18.14536983	     24.54792596	     47.93206915	      0.00000000	      0.00000000	     15.34319539	    -17.80128250	      0.80930808	     56.15136781	     46.35257910	      0.00000000	      0.00000000
     29.83000000	     -1.61154856	     -2.01251355	     -3.07533646	      1.02921721	      0.93310187	      0.41382431	     24.17568850	     -5.14680482	     -9.28908362	     20.76776296	     20.76776296	      1.98257162	      2.74885203	      4.18535399	      2.97815424	     -2.32256245	    -10.35851312	     14.26761573	     14.26761573	     14.27259029	     -5.71560189	     -8.08595468	    -10.88526955	      0.11525222	      0.51499651	    -10.88444744	    -16.29687805	    -18.18723515	     24.66670567	     47.92583520	      0.00000000	      0.00000000	     15.30551959	    -17.77336441	      0.79021456	     56.22790297	     46.35624057	      0.00000000	      0.00000000
     29.84250000	     -1.31673151	     -1.82195322	     -3.04870016	      1.03150335	      0.93286391	      0.41531377	     23.22340985	     -5.16159260	     -9.07343996	     20.90201378	     20.90201378	      2.37888768	      2.34400706	      3.99670517	      1.78272979	     -2.15575964	    -10.73743137	     13.58128360	     13.58128360	     14.54194950	     -4.76640804	     -7.98924238	    -10.95430630	     -0.04631266	      0.40442754	    -11.01150899	    -16.14260263	    -18.44472265	     25.56363391	     47.88727405	      0.00000000	      0.00000000	     15.09413162	    -17.85019713	      0.59382035	     56.60729552	     46.38347622	      0.00000000	      0.00000000
     29.85500000	     -1.20411583	     -1.73885999	     -2.94558547	      1.03370419	      0.93227611	      0.41689570	     22.38152649	     -5.06941829	     -8.95615163	     20.89092588	     20.89092588	      2.82066431	      2.01545745	      3.66748685	      1.05016492	     -2.18234860	    -10.99661505	     13.39874104	     13.39874104	     14.98314456	     -3.98926336	     -7.84823599	    -10.81324138	     -0.06621487	      0.29068320	    -11.13966930	    -15.95891450	    -18.68989247	     26.54049265	     47.83918318	      0.00000000	      0.00000000	     14.81457255	    -17.83712254	      0.36698905	     56.95258328	     46.41389908	      0.00000000	      0.00000000
